<svg width="240" height="19" viewBox="0 0 240 19" fill="none" xmlns="http://www.w3.org/2000/svg">
<g clip-path="url(#clip0_3_444)">
<path d="M8.2029 17.2554C8.16624 17.3559 8.12957 17.4457 8.09814 17.5356C8.064 17.6232 8.02006 17.7066 7.96719 17.7841C7.91226 17.8599 7.84702 17.9275 7.77338 17.985C7.685 18.0501 7.5856 18.0985 7.48004 18.1277C7.01909 18.2757 6.55813 18.4079 6.09718 18.5136C5.63623 18.6194 5.18051 18.7568 4.71432 18.9101L4.48384 18.9789C4.42119 18.9861 4.35792 18.9861 4.29527 18.9789C4.24288 18.9847 4.18986 18.9787 4.14004 18.9613C4.09022 18.9439 4.04484 18.9156 4.00717 18.8784C3.94424 18.8035 3.89941 18.7148 3.87622 18.6194L0.089061 3.45214C0.0375271 3.2967 0.0075601 3.1348 1.29864e-05 2.97106C-0.00404889 2.89583 0.00787072 2.82059 0.0349729 2.75038C0.0620751 2.68017 0.103734 2.61663 0.157156 2.564C0.304878 2.42868 0.485704 2.33561 0.680968 2.29438C0.973689 2.21534 1.27112 2.1553 1.57145 2.11464C1.93812 2.05648 2.38336 1.98776 2.91764 1.91375L3.56717 1.82916C3.74527 1.82916 3.89717 1.80273 4.02289 1.80273C4.17235 1.78465 4.32322 1.82225 4.44717 1.90846C4.53328 2.00321 4.59924 2.11476 4.64098 2.23623L6.73623 11.4666L9.71148 3.00807L9.82672 2.71731C9.87153 2.63657 9.93656 2.56912 10.0153 2.5217C10.1508 2.45116 10.2929 2.39449 10.4396 2.35253C10.6229 2.29967 10.8953 2.23623 11.2515 2.15693C11.8015 2.04062 12.2624 1.95604 12.6239 1.90317C12.9133 1.85637 13.2056 1.82988 13.4986 1.82387C13.6791 1.80726 13.8606 1.84206 14.0225 1.92432C14.0663 1.95815 14.1012 2.0024 14.1241 2.05312C14.1469 2.10385 14.157 2.15948 14.1534 2.21508C14.1579 2.27158 14.147 2.32823 14.122 2.37897C14.0958 2.43183 14.0696 2.50056 14.0382 2.58514L8.2029 17.2554Z" fill="#3498DB"/>
<path d="M20.3291 18.8202C19.3897 18.8355 18.4572 18.6555 17.5896 18.2916C16.8449 17.9749 16.1728 17.5071 15.6148 16.9171C15.0883 16.3504 14.6819 15.6812 14.4206 14.9505C13.8966 13.4702 13.8966 11.8525 14.4206 10.3723C14.9162 8.958 15.8924 7.76673 17.1758 7.01001C17.8403 6.6243 18.5675 6.36114 19.3234 6.23288C19.4439 6.23288 19.5015 6.20116 19.5015 6.15358C19.501 6.07708 19.4922 6.00086 19.4753 5.92626C19.456 5.86646 19.4454 5.80412 19.4439 5.74123C19.4404 5.71211 19.4427 5.68258 19.4508 5.65441C19.4589 5.62624 19.4726 5.60002 19.491 5.57735C19.5032 5.5626 19.5184 5.5507 19.5356 5.54248C19.5528 5.53427 19.5716 5.52993 19.5906 5.52977C20.8061 5.50319 22.0183 5.66726 23.1839 6.01613C24.071 6.28276 24.8934 6.73286 25.5987 7.33778C26.2013 7.87653 26.6651 8.55508 26.9501 9.31496C27.2327 10.0993 27.3746 10.9281 27.3692 11.7627C27.3874 12.7809 27.1985 13.7921 26.8139 14.7337C26.4739 15.5695 25.9626 16.3234 25.3135 16.9456C24.6644 17.5679 23.8923 18.0446 23.0477 18.3445C22.1768 18.6648 21.2562 18.826 20.3291 18.8202ZM18.2863 12.5451C18.286 12.9484 18.3281 13.3507 18.412 13.7451C18.4923 14.1187 18.6339 14.4761 18.831 14.8024C19.0239 15.1187 19.2877 15.3849 19.601 15.5796C19.961 15.7868 20.3707 15.8892 20.7849 15.8756C21.0953 15.867 21.3998 15.7875 21.6753 15.643C21.9264 15.5104 22.1503 15.331 22.3353 15.1144C22.5208 14.8874 22.6758 14.6368 22.7963 14.3689C22.9163 14.0946 23.011 13.8097 23.0792 13.5178C23.1487 13.2325 23.1995 12.9429 23.2311 12.6508C23.2593 12.3945 23.2733 12.1368 23.273 11.879C23.2749 11.4937 23.2184 11.1104 23.1053 10.7423C22.9934 10.3843 22.8157 10.0507 22.5815 9.75904C22.3569 9.4735 22.0748 9.23927 21.7539 9.07178C21.4038 8.89168 21.0154 8.80093 20.6225 8.80745C20.2131 8.7951 19.8137 8.93636 19.5015 9.20394C19.194 9.47402 18.9475 9.80753 18.7787 10.182C18.5948 10.5697 18.4627 10.9803 18.3858 11.4032C18.3161 11.7797 18.2828 12.1621 18.2863 12.5451Z" fill="#3498DB"/>
<path d="M34.8649 18.8203C33.9254 18.8359 32.9928 18.656 32.1254 18.2916C31.38 17.9763 30.7075 17.5082 30.1506 16.9171C29.6208 16.352 29.2124 15.6824 28.9511 14.9505C28.6921 14.2245 28.5575 13.4594 28.553 12.6878C28.5382 11.1477 29.0591 9.65106 30.0249 8.45854C30.4939 7.88533 31.0596 7.40031 31.6958 7.02587C32.3603 6.64016 33.0876 6.377 33.8435 6.24874C33.964 6.24874 34.0216 6.21703 34.0216 6.16945C34.0297 6.09389 34.0297 6.01768 34.0216 5.94212C34.0022 5.88232 33.9916 5.81999 33.9901 5.75709C33.9866 5.72798 33.989 5.69844 33.9971 5.67027C34.0052 5.6421 34.0189 5.61588 34.0373 5.59321C34.0497 5.57872 34.0649 5.56701 34.0821 5.55881C34.0992 5.55062 34.1179 5.54613 34.1368 5.54563C35.354 5.51944 36.5679 5.6835 37.7354 6.03199C38.6204 6.29987 39.4408 6.74987 40.1449 7.35364C40.7493 7.89082 41.2134 8.56985 41.4964 9.33083C41.7815 10.1144 41.9235 10.9438 41.9154 11.7785C41.941 12.7944 41.7628 13.805 41.3916 14.7496C41.0492 15.5789 40.5386 16.3267 39.8927 16.9449C39.2467 17.5631 38.4798 18.038 37.6411 18.3392C36.7523 18.6684 35.8116 18.8314 34.8649 18.8203ZM32.8168 12.5451C32.8165 12.9485 32.8587 13.3507 32.9425 13.7451C33.0228 14.1187 33.1644 14.4761 33.3616 14.8024C33.5574 15.1164 33.8205 15.3819 34.1316 15.5796C34.4915 15.7868 34.9013 15.8892 35.3154 15.8756C35.6258 15.867 35.9303 15.7875 36.2059 15.643C36.4569 15.5104 36.6809 15.331 36.8659 15.1144C37.0514 14.8875 37.2064 14.6368 37.3268 14.3689C37.4462 14.0938 37.5426 13.8091 37.6149 13.5178C37.6828 13.2324 37.7318 12.9428 37.7616 12.6508C37.7914 12.3946 37.8071 12.1369 37.8087 11.879C37.8089 11.4934 37.7506 11.1101 37.6359 10.7423C37.5239 10.3843 37.3462 10.0507 37.1121 9.75904C36.8886 9.47235 36.6062 9.2379 36.2844 9.07178C35.9346 8.89107 35.546 8.80028 35.153 8.80745C34.7436 8.7951 34.3442 8.93637 34.0321 9.20395C33.7262 9.47555 33.48 9.80868 33.3092 10.182C33.1253 10.5697 32.9932 10.9804 32.9163 11.4032C32.8466 11.7797 32.8133 12.1621 32.8168 12.5451Z" fill="#3498DB"/>
<path d="M52.3812 9.1458L51.8573 9.09822C51.6554 9.07852 51.4526 9.06969 51.2497 9.07179C50.9162 9.07171 50.5833 9.1 50.2545 9.15637C49.9266 9.20785 49.6107 9.3189 49.3221 9.48414C49.0282 9.65224 48.7743 9.8832 48.5783 10.1608C48.3578 10.4926 48.2211 10.8737 48.1802 11.271C48.1278 11.7997 48.0859 12.2755 48.0545 12.6297C48.023 12.9839 47.9969 13.2693 47.9811 13.4967C47.9654 13.724 47.9811 13.909 47.9445 14.0253C47.9078 14.1416 47.9445 14.2896 47.9445 14.4112C47.9445 14.4377 47.9445 14.5223 47.9445 14.6544C47.9445 14.7866 47.9445 14.9452 47.8973 15.1249C47.8502 15.3047 47.8554 15.5003 47.8345 15.7065C47.8135 15.9126 47.7978 16.1082 47.7769 16.288C47.7559 16.4677 47.735 16.621 47.7245 16.7585C47.714 16.8959 47.7245 16.9699 47.7245 17.0017C47.7216 17.0527 47.7216 17.1039 47.7245 17.155C47.7271 17.1937 47.7271 17.2326 47.7245 17.2713C47.7247 17.3012 47.7171 17.3307 47.7024 17.3567C47.6877 17.3827 47.6664 17.4043 47.6407 17.4193C47.5252 17.487 47.3996 17.5352 47.2688 17.562L44.3407 18.6194L44.0159 18.7357C43.8907 18.7769 43.76 18.7983 43.6283 18.7991C43.5333 18.8011 43.4399 18.7734 43.3611 18.7198C43.3194 18.6907 43.2862 18.6508 43.265 18.6043C43.2438 18.5578 43.2354 18.5064 43.2407 18.4555L44.1259 7.40122C44.1333 7.22231 44.1615 7.04489 44.2097 6.87256C44.2302 6.82103 44.2646 6.77635 44.3091 6.74363C44.3536 6.71091 44.4062 6.69147 44.4611 6.68753C45.1316 6.55008 45.823 6.41792 46.5564 6.28047C47.2648 6.1473 47.9645 5.97076 48.6516 5.75181C48.7092 5.75181 48.7459 5.75181 48.7564 5.78353C48.7635 5.80947 48.7635 5.83688 48.7564 5.86283C48.7586 5.88568 48.7586 5.9087 48.7564 5.93155L48.725 6.13244C48.704 6.23817 48.6778 6.39677 48.6464 6.60823C48.615 6.8197 48.5678 7.13689 48.5102 7.49638C48.8614 7.21828 49.2366 6.97236 49.6311 6.76155C50.0293 6.54037 50.4424 6.34781 50.8673 6.18531C51.2493 6.03402 51.6414 5.91035 52.0407 5.81525C52.3691 5.7275 52.7067 5.67958 53.0464 5.67251L52.3812 9.1458Z" fill="#3498DB"/>
<path d="M53.8636 18.7885C53.7844 18.8069 53.7037 18.8175 53.6226 18.8203C53.3869 18.8203 53.2664 18.6775 53.2664 18.3973C53.2664 18.3603 53.2664 18.3233 53.2664 18.2863C53.2643 18.2458 53.2643 18.2052 53.2664 18.1647L54.5498 2.35781C54.5472 2.33498 54.5472 2.31192 54.5498 2.28909C54.5498 2.28909 54.5498 2.24679 54.5498 2.23622C54.5498 2.22565 54.5498 2.17807 54.5498 2.15692C54.5474 2.13761 54.5474 2.11808 54.5498 2.09877C54.5483 2.06884 54.5537 2.03897 54.5655 2.01147C54.5773 1.98397 54.5952 1.95958 54.6178 1.94017C54.736 1.87034 54.8655 1.82202 55.0002 1.79743L58.1431 1.05731C58.2517 1.03094 58.3584 0.997384 58.4626 0.956866C58.5857 0.905834 58.7172 0.878922 58.8502 0.877567C58.9447 0.877253 59.0379 0.898965 59.1226 0.941006C59.1657 0.967737 59.2004 1.00627 59.2227 1.05213C59.245 1.09799 59.2538 1.14929 59.2483 1.20005C59.2509 1.2158 59.2509 1.23187 59.2483 1.24763C59.2454 1.26157 59.2454 1.27598 59.2483 1.28992C59.2483 1.32693 59.2483 1.49081 59.196 1.78157C59.1436 2.07234 59.1331 2.42125 59.0964 2.83889C59.0598 3.25653 59.0179 3.69532 58.9707 4.16583C58.9236 4.63633 58.8869 5.08041 58.8502 5.49276C58.8136 5.90511 58.7822 6.25932 58.7507 6.55008C58.7193 6.84084 58.7036 7.00472 58.6931 7.04173C59.2239 6.69181 59.7849 6.39101 60.3693 6.14301C60.9136 5.90561 61.4997 5.78154 62.0926 5.77824C62.7791 5.75965 63.4584 5.92374 64.0622 6.25403C64.6086 6.56478 65.0779 6.99683 65.4346 7.51752C65.8075 8.06843 66.079 8.68269 66.236 9.33082C66.4123 10.0215 66.5003 10.7322 66.4979 11.4455C66.4982 12.0396 66.4438 12.6325 66.3355 13.2165C66.232 13.7965 66.0778 14.3662 65.8746 14.9187C65.6737 15.4538 65.4173 15.9659 65.1098 16.4466C64.8189 16.9074 64.4664 17.3254 64.0622 17.6889C63.6609 18.036 63.2039 18.3113 62.7107 18.5031C62.2113 18.7054 61.6775 18.8078 61.1393 18.8044C60.4833 18.8109 59.8358 18.6548 59.2536 18.3497C58.6773 18.0314 58.1483 17.6328 57.6821 17.1655C57.6821 17.34 57.6821 17.4827 57.6507 17.5885C57.649 17.6732 57.6236 17.7556 57.5774 17.8264C57.5299 17.8882 57.4665 17.9358 57.3941 17.9638C57.2764 18.0081 57.1555 18.0435 57.0326 18.0696L56.6031 18.1753L55.875 18.3445L54.9321 18.5506L53.8636 18.7885ZM57.9807 14.6016C58.069 14.7637 58.1763 14.9146 58.3002 15.0509C58.4419 15.209 58.6019 15.3492 58.7769 15.4686C58.9587 15.5987 59.1581 15.7019 59.3688 15.7752C59.5798 15.8552 59.8034 15.8964 60.0288 15.8968C60.3636 15.8898 60.6834 15.7558 60.9245 15.5214C61.2324 15.2376 61.4832 14.8966 61.6631 14.517C61.8842 14.0576 62.0495 13.5731 62.1555 13.0737C62.2764 12.5217 62.3362 11.9579 62.3336 11.3926C62.3351 11.052 62.3035 10.712 62.2393 10.3776C62.1856 10.0836 62.0867 9.8 61.946 9.537C61.8204 9.30767 61.6404 9.11332 61.4222 8.97133C61.1955 8.82598 60.931 8.75233 60.6626 8.75987C60.1894 8.75635 59.7272 8.90443 59.3426 9.1828C58.9383 9.47176 58.5962 9.84043 58.3369 10.2665L57.9807 14.6016Z" fill="#3498DB"/>
<path d="M74.507 5.77295C75.1635 5.76362 75.8142 5.89893 76.4137 6.16944C76.9648 6.41814 77.4657 6.76765 77.8908 7.20033C78.2913 7.60591 78.6114 8.08501 78.8337 8.61185C79.0522 9.11165 79.1663 9.65154 79.1689 10.1978C79.1591 10.6922 79.0121 11.1739 78.7446 11.5882C78.4389 12.0828 78.0382 12.5106 77.566 12.8464C77.0106 13.2404 76.3973 13.5437 75.7484 13.7451C74.5398 14.1151 73.261 14.1876 72.0189 13.9566C72.0381 14.2505 72.1319 14.5345 72.2913 14.7813C72.447 15.0036 72.6468 15.1908 72.8779 15.3311C73.1268 15.485 73.3995 15.5957 73.6846 15.6589C73.9865 15.7317 74.2961 15.7672 74.6065 15.7646C74.9492 15.7659 75.2913 15.734 75.6279 15.6694C75.9495 15.6097 76.2663 15.5267 76.576 15.421C76.8798 15.3152 77.1732 15.1989 77.4508 15.0721C77.7284 14.9452 77.9746 14.8236 78.247 14.6967L78.4199 14.6544H78.556C78.556 14.8923 78.556 15.1196 78.556 15.3364C78.556 15.5531 78.556 15.8122 78.556 16.1188C78.556 16.4254 78.556 16.7638 78.556 17.1338C78.5768 17.1678 78.591 17.2055 78.5979 17.2448C78.6017 17.2747 78.6017 17.3049 78.5979 17.3347C78.5979 17.4246 78.5141 17.5197 78.3518 17.6255C78.15 17.751 77.9379 17.8589 77.7179 17.948C77.456 18.059 77.1575 18.17 76.817 18.2757C76.4765 18.3815 76.1413 18.4713 75.7694 18.5559C75.438 18.6412 75.1022 18.7082 74.7636 18.7568C74.4815 18.8044 74.1959 18.8292 73.9098 18.8308C73.1178 18.8326 72.3319 18.6911 71.5894 18.4132C70.8579 18.1412 70.1829 17.7343 69.5989 17.2131C69.0181 16.6865 68.5494 16.0462 68.2212 15.3311C67.8646 14.5416 67.6857 13.6822 67.6974 12.8147C67.6865 11.8672 67.8573 10.9265 68.2003 10.0445C68.5165 9.21737 68.9949 8.46321 69.607 7.82729C70.2191 7.19138 70.9522 6.68682 71.7622 6.3439C72.6283 5.96446 73.5628 5.77006 74.507 5.77295ZM74.3813 8.74401C74.0907 8.74279 73.8037 8.80975 73.5432 8.93962C73.2748 9.08459 73.0365 9.28021 72.8413 9.51585C72.6181 9.77428 72.4313 10.0625 72.286 10.3723C72.1262 10.7327 72.0016 11.1081 71.9141 11.493C72.5517 11.3874 73.183 11.2462 73.8051 11.0701C74.2191 10.9545 74.6222 10.8023 75.0098 10.6155C75.2523 10.5084 75.4713 10.3539 75.6541 10.1608C75.7666 10.0397 75.8333 9.8825 75.8427 9.71674C75.8386 9.57565 75.7848 9.44066 75.6908 9.33611C75.5848 9.21202 75.4592 9.10661 75.3189 9.0242C75.0304 8.85373 74.7048 8.7575 74.3708 8.74401H74.3813Z" fill="#3498DB"/>
<path d="M87.1465 5.77295C87.8031 5.76362 88.4538 5.89893 89.0532 6.16944C89.6036 6.41687 90.1029 6.76658 90.5251 7.20033C90.9289 7.60434 91.2509 8.08375 91.4732 8.61185C91.6901 9.11199 91.8024 9.65189 91.8032 10.1978C91.795 10.6917 91.6498 11.1734 91.3842 11.5882C91.0785 12.0828 90.6777 12.5106 90.2056 12.8464C89.6502 13.2404 89.0368 13.5437 88.388 13.7451C87.1794 14.1151 85.9005 14.1876 84.6584 13.9566C84.6777 14.2505 84.7715 14.5345 84.9308 14.7813C85.0866 15.0036 85.2863 15.1908 85.5175 15.3311C85.7661 15.4856 86.0388 15.5964 86.3242 15.6589C86.6261 15.7317 86.9357 15.7672 87.2461 15.7646C87.5888 15.7659 87.9308 15.734 88.2675 15.6694C88.589 15.6097 88.9059 15.5267 89.2156 15.421C89.5194 15.3152 89.8075 15.1989 90.0904 15.0721C90.3732 14.9452 90.6142 14.8236 90.8866 14.6967L91.0594 14.6544H91.1956C91.1956 14.8923 91.1956 15.1196 91.1956 15.3364C91.1956 15.5531 91.1956 15.8122 91.1956 16.1188C91.1956 16.4254 91.1956 16.7638 91.1956 17.1338C91.2164 17.1678 91.2306 17.2055 91.2375 17.2448C91.2418 17.2746 91.2418 17.3049 91.2375 17.3347C91.2375 17.4246 91.1589 17.5197 90.9966 17.6255C90.7948 17.751 90.5827 17.8589 90.3627 17.948C90.1008 18.059 89.797 18.17 89.4618 18.2757C89.1265 18.3815 88.7861 18.4713 88.4404 18.5559C88.109 18.6412 87.7732 18.7082 87.4346 18.7568C87.1524 18.8042 86.8669 18.8289 86.5808 18.8308C85.7888 18.8326 85.0029 18.6911 84.2603 18.4132C83.5289 18.1412 82.8539 17.7343 82.2699 17.2131C81.6777 16.6895 81.1982 16.049 80.8608 15.3311C80.5042 14.5416 80.3253 13.6822 80.337 12.8147C80.3368 11.8765 80.5146 10.9469 80.8608 10.0762C81.1758 9.25007 81.6526 8.49651 82.2629 7.86066C82.8731 7.22481 83.6041 6.71972 84.4122 6.37562C85.2728 5.9867 86.2037 5.78152 87.1465 5.77295ZM87.0156 8.74401C86.725 8.74279 86.4381 8.80975 86.1775 8.93962C85.9101 9.0837 85.6733 9.2795 85.4808 9.51585C85.2583 9.7795 85.0732 10.0731 84.9308 10.3881C84.771 10.7486 84.6464 11.124 84.5589 11.5089C85.1965 11.4033 85.8278 11.2621 86.4499 11.086C86.8639 10.9703 87.267 10.8182 87.6546 10.6313C87.8971 10.5243 88.1161 10.3697 88.2989 10.1767C88.4114 10.0555 88.4781 9.89836 88.4875 9.7326C88.4834 9.59151 88.4296 9.45652 88.3356 9.35197C88.2283 9.22926 88.1029 9.12404 87.9637 9.04006C87.8134 8.949 87.6512 8.8796 87.4818 8.83388C87.3309 8.78349 87.1742 8.75328 87.0156 8.74401Z" fill="#3498DB"/>
<path d="M93.9509 8.79159C94.0382 7.77304 94.1115 6.7633 94.1709 5.76238C94.2233 4.7685 94.2861 3.7429 94.349 2.69087C94.3527 2.51235 94.3773 2.3349 94.4223 2.16221C94.4447 2.112 94.4797 2.06853 94.5238 2.03609C94.5678 2.00364 94.6195 1.98334 94.6738 1.97718L96.7376 1.59126C97.4459 1.4578 98.1456 1.28126 98.8328 1.0626H98.9323C99.0109 1.0626 99.0528 1.09961 99.0528 1.17362L97.6176 17.1233V17.3136C97.6186 17.3453 97.612 17.3768 97.5983 17.4053C97.5846 17.4339 97.5643 17.4586 97.539 17.4775C97.4249 17.543 97.3011 17.5894 97.1723 17.6149L94.2704 18.6722C94.1675 18.7203 94.0606 18.7593 93.9509 18.7885C93.8257 18.8298 93.6949 18.8512 93.5633 18.852C93.4666 18.854 93.3716 18.8264 93.2909 18.7727C93.2512 18.7407 93.22 18.6994 93.1999 18.6524C93.1798 18.6054 93.1715 18.5541 93.1757 18.5031C93.2385 17.7471 93.2909 17.0122 93.3485 16.2933C93.4061 15.5743 93.4637 14.8342 93.5266 14.0676C93.5895 13.3011 93.6576 12.4816 93.7309 11.6305C93.8042 10.7794 93.8618 9.8119 93.9509 8.79159Z" fill="#3498DB"/>
<path d="M112.316 17.1127C112.316 17.1127 112.316 17.1444 112.316 17.1603C112.313 17.1778 112.313 17.1956 112.316 17.2131C112.313 17.243 112.313 17.2731 112.316 17.303C112.316 17.303 112.316 17.3453 112.316 17.3717C112.316 17.402 112.309 17.4319 112.297 17.4593C112.284 17.4867 112.265 17.5109 112.242 17.5303C112.128 17.6 112.002 17.6484 111.87 17.6731L108.906 18.6405L108.586 18.7568C108.461 18.7977 108.33 18.819 108.199 18.8202C108.102 18.8223 108.007 18.7947 107.926 18.741C107.884 18.7075 107.851 18.6636 107.831 18.6136C107.811 18.5635 107.804 18.5091 107.811 18.4555C107.811 18.318 107.811 18.2123 107.811 18.1277C107.811 18.0431 107.811 17.9691 107.811 17.9004C107.811 17.8317 107.811 17.7524 107.811 17.6731C107.811 17.5938 107.837 17.4827 107.853 17.3453C107.328 17.7681 106.752 18.1232 106.14 18.4026C105.558 18.6703 104.925 18.8074 104.286 18.8044C103.62 18.8099 102.967 18.6267 102.4 18.2757C101.843 17.93 101.369 17.4642 101.012 16.9118C100.621 16.3139 100.33 15.6547 100.153 14.961C99.9561 14.2107 99.8575 13.4376 99.8595 12.6614C99.8542 11.6936 100.032 10.7336 100.383 9.83305C100.692 9.01965 101.156 8.27582 101.75 7.6444C102.32 7.04024 103.007 6.55992 103.767 6.23288C104.541 5.90169 105.373 5.73262 106.213 5.73594C106.681 5.73931 107.14 5.86694 107.544 6.106C107.986 6.3646 108.39 6.68497 108.743 7.05759C108.771 6.70515 108.797 6.30866 108.822 5.86811C108.853 5.43989 108.879 5.00111 108.911 4.55703C108.942 4.11296 108.969 3.67946 109 3.24596C109.031 2.81246 109.058 2.42125 109.079 2.06176C109.077 2.03127 109.083 2.00083 109.095 1.97316C109.108 1.94549 109.128 1.92144 109.152 1.90317C109.264 1.83267 109.388 1.78424 109.519 1.76043L112.646 1.05731C112.754 1.03169 112.861 0.998119 112.965 0.956866C113.088 0.905835 113.22 0.878922 113.353 0.877568C113.447 0.876666 113.541 0.898408 113.625 0.941007C113.668 0.967738 113.703 1.00628 113.725 1.05213C113.748 1.09799 113.756 1.14929 113.751 1.20005C113.753 1.23174 113.753 1.26352 113.751 1.29521C113.751 1.34279 113.751 1.37451 113.751 1.39037L112.316 17.1127ZM108.429 11.8842C108.429 11.6463 108.476 11.3979 108.502 11.1388C108.529 10.8798 108.56 10.6102 108.597 10.3194C108.455 9.90616 108.218 9.53285 107.905 9.23038C107.584 8.94742 107.168 8.79814 106.742 8.81274C106.32 8.79931 105.907 8.94009 105.579 9.20923C105.259 9.47747 104.999 9.8107 104.815 10.1873C104.622 10.5732 104.483 10.9841 104.401 11.4085C104.323 11.7824 104.281 12.163 104.275 12.5451C104.274 12.9443 104.297 13.3433 104.343 13.7398C104.385 14.0996 104.464 14.454 104.579 14.7972C104.666 15.0828 104.811 15.3473 105.003 15.5743C105.086 15.6694 105.189 15.7452 105.304 15.7963C105.418 15.8475 105.543 15.8727 105.669 15.8703C106.223 15.8692 106.767 15.7137 107.24 15.421C107.631 15.1593 107.963 14.817 108.214 14.4165L108.429 11.8842Z" fill="#3498DB"/>
<path d="M116.286 18.2387C116.14 18.2387 115.982 18.2387 115.815 18.2387C115.662 18.2258 115.511 18.1974 115.364 18.1541C115.241 18.1206 115.125 18.067 115.019 17.9955C114.976 17.965 114.942 17.9245 114.918 17.8775C114.894 17.8306 114.882 17.7786 114.882 17.7259C114.878 17.7158 114.878 17.7044 114.882 17.6942C114.885 17.6784 114.885 17.6624 114.882 17.6466L118.8 9.51585C118.491 9.51585 118.14 9.51585 117.753 9.51585L116.595 9.54757L115.49 9.57401C115.139 9.57401 114.846 9.57401 114.6 9.57401C114.568 9.57673 114.537 9.57192 114.508 9.55998C114.478 9.54803 114.452 9.52929 114.432 9.50528C114.398 9.45772 114.379 9.40028 114.38 9.3414V9.29382L115.495 6.60294C115.515 6.51517 115.557 6.43368 115.615 6.36553C115.673 6.29737 115.747 6.24458 115.83 6.21174C115.987 6.15383 116.151 6.12343 116.318 6.12186C117.611 6.12186 118.89 6.1483 120.141 6.19059C121.393 6.23288 122.661 6.25932 123.95 6.25932C124.039 6.2611 124.126 6.28861 124.201 6.33861C124.237 6.35445 124.268 6.3802 124.29 6.41292C124.312 6.44564 124.325 6.48401 124.327 6.52365C124.33 6.54995 124.33 6.57664 124.327 6.60294L120.817 14.3319C120.817 14.3319 120.817 14.3584 120.88 14.3689H121.032H121.22H121.383C121.851 14.3689 122.301 14.3584 122.734 14.3372C123.169 14.3372 123.609 14.3002 124.049 14.3002C124.123 14.2984 124.196 14.3187 124.259 14.3584C124.321 14.3954 124.348 14.4694 124.348 14.5804L122.954 17.5197C122.926 17.6184 122.877 17.71 122.811 17.7883C122.745 17.8667 122.664 17.9301 122.572 17.9744C122.375 18.0635 122.167 18.124 121.954 18.1541C121.685 18.1988 121.414 18.2253 121.142 18.2334C120.845 18.2334 120.536 18.2334 120.215 18.2334L116.286 18.2387Z" fill="#3498DB"/>
<path d="M126.05 13.5019C126.144 12.4869 126.24 11.4789 126.338 10.478C126.436 9.47709 126.52 8.45326 126.59 7.40651C126.592 7.22791 126.617 7.05034 126.663 6.87785C126.683 6.82632 126.718 6.78164 126.762 6.74892C126.807 6.7162 126.859 6.69676 126.914 6.69282L128.884 6.29633C129.558 6.16255 130.223 5.98598 130.874 5.76767H130.974C131.058 5.76767 131.094 5.79939 131.094 5.85754L130.099 16.7373C130.093 16.916 130.066 17.0933 130.021 17.266C130.002 17.3171 129.97 17.3617 129.927 17.3946C129.884 17.4274 129.833 17.447 129.78 17.451C129.151 17.6466 128.517 17.8634 127.873 18.1013C127.229 18.3392 126.553 18.5824 125.841 18.8255C125.808 18.8316 125.774 18.8316 125.741 18.8255C125.657 18.8255 125.615 18.7885 125.615 18.7145C125.615 18.7145 125.615 18.6088 125.641 18.4132C125.668 18.2176 125.673 17.9691 125.699 17.6625C125.725 17.3559 125.751 17.0175 125.783 16.6369L125.877 15.5003C125.909 15.1196 125.94 14.7549 125.971 14.406C126.003 14.0465 126.029 13.7451 126.05 13.5019ZM126.878 4.58876C126.878 4.27156 126.92 4.02309 126.93 3.85392C126.941 3.68475 126.93 3.55259 126.956 3.468C126.982 3.38342 126.956 3.33055 126.956 3.30412C126.953 3.28843 126.953 3.27223 126.956 3.25654C126.961 3.23389 126.961 3.21046 126.956 3.18781C126.956 3.15609 126.956 3.08737 126.956 2.97635C126.956 2.86533 126.956 2.71202 126.993 2.50056C127.03 2.28909 127.03 2.0089 127.056 1.64413C127.06 1.46562 127.084 1.28818 127.129 1.11547C127.152 1.06593 127.187 1.02326 127.231 0.99172C127.275 0.960179 127.327 0.940872 127.381 0.935726L129.381 0.555092C130.055 0.421965 130.72 0.245384 131.372 0.0264329L131.477 0C131.485 0.0202099 131.497 0.0385701 131.512 0.0540031C131.528 0.0694361 131.546 0.081631 131.566 0.089872H131.597L131.361 3.17195C131.353 3.35075 131.325 3.52804 131.278 3.70061C131.26 3.75065 131.229 3.79439 131.187 3.82636C131.145 3.85833 131.094 3.87712 131.042 3.88036C130.413 4.00195 129.78 4.12883 129.135 4.27156C128.491 4.4143 127.815 4.55704 127.098 4.69449C127.065 4.70181 127.031 4.70181 126.998 4.69449C126.983 4.69679 126.968 4.69577 126.953 4.6915C126.939 4.68722 126.925 4.6798 126.914 4.66974C126.902 4.65969 126.893 4.64723 126.887 4.63325C126.881 4.61927 126.877 4.60409 126.878 4.58876Z" fill="#3498DB"/>
<path d="M141.722 18.6405L141.398 18.7462C141.274 18.7955 141.143 18.8206 141.01 18.8202C140.915 18.8222 140.822 18.7945 140.743 18.7409C140.701 18.7118 140.668 18.6719 140.647 18.6254C140.626 18.5789 140.617 18.5275 140.622 18.4766V18.4079C140.67 18.0061 140.706 17.6678 140.738 17.3876C140.769 17.1074 140.79 16.8589 140.816 16.6263C140.842 16.3937 140.869 16.1717 140.884 15.9443C140.9 15.717 140.926 15.4527 140.958 15.1514C140.989 14.85 141.021 14.4905 141.062 14.094C141.104 13.6975 141.152 13.1689 141.209 12.5504C141.246 12.1697 141.282 11.7838 141.309 11.3873C141.335 10.9908 141.356 10.626 141.356 10.293C141.358 10.0856 141.34 9.87847 141.303 9.67445C141.278 9.5008 141.219 9.33382 141.131 9.1828C141.044 9.04541 140.923 8.934 140.78 8.86032C140.602 8.77996 140.408 8.74198 140.214 8.7493C139.977 8.75941 139.741 8.79665 139.512 8.86032C139.2 8.94146 138.9 9.06601 138.622 9.23038C138.323 9.40798 138.057 9.63699 137.836 9.90706C137.602 10.2007 137.466 10.5616 137.448 10.9379C137.406 11.493 137.364 11.9635 137.328 12.3548C137.291 12.746 137.239 13.0579 137.239 13.3328C137.239 13.6077 137.186 13.8244 137.165 13.9936C137.144 14.1628 137.134 14.3108 137.129 14.4324C137.111 14.5124 137.098 14.5937 137.092 14.6756C137.092 14.813 137.061 14.9716 137.045 15.1566C137.029 15.3417 137.008 15.5426 136.987 15.7487C136.966 15.9549 136.951 16.1558 136.935 16.3408C136.919 16.5259 136.898 16.6898 136.888 16.8219C136.877 16.9541 136.888 17.0387 136.888 17.0704C136.885 17.1197 136.885 17.1691 136.888 17.2184C136.89 17.2571 136.89 17.296 136.888 17.3347C136.887 17.3653 136.88 17.3953 136.865 17.422C136.85 17.4488 136.829 17.4714 136.804 17.488C136.688 17.5502 136.565 17.5964 136.437 17.6255L133.504 18.6405L133.179 18.7568C133.054 18.7981 132.923 18.8195 132.791 18.8202C132.696 18.8222 132.603 18.7945 132.524 18.7409C132.483 18.7118 132.449 18.6719 132.428 18.6254C132.407 18.5789 132.399 18.5275 132.404 18.4766L133.415 7.05759C133.42 6.8785 133.449 6.70085 133.499 6.52893C133.521 6.47942 133.555 6.43641 133.598 6.40402C133.641 6.37162 133.692 6.35092 133.745 6.3439L135.814 5.93683C136.513 5.80243 137.204 5.62589 137.883 5.40817C137.946 5.40817 137.977 5.40817 137.988 5.43461C137.997 5.46204 137.997 5.49176 137.988 5.51919C137.988 5.51919 137.988 5.5562 137.988 5.58792C137.988 5.61964 137.988 5.68308 137.951 5.78881L137.872 6.2646C137.841 6.47606 137.794 6.79326 137.736 7.14746C138.198 6.87505 138.677 6.63483 139.172 6.42848C139.581 6.25986 140.001 6.11857 140.429 6.00556C140.795 5.90991 141.168 5.84275 141.544 5.80467C141.89 5.77295 142.215 5.7518 142.519 5.7518C142.945 5.71502 143.374 5.78282 143.769 5.94943C144.164 6.11604 144.513 6.37651 144.787 6.70867C145.318 7.56392 145.565 8.56738 145.494 9.57401C145.494 9.75375 145.494 9.93878 145.494 10.1291C145.494 10.3194 145.494 10.5097 145.452 10.7106L144.928 15.5161C144.892 15.828 144.871 16.1188 144.865 16.3831C144.86 16.6475 144.865 16.9541 144.865 17.303C144.862 17.3541 144.862 17.4052 144.865 17.4563C144.865 17.4933 144.865 17.5303 144.865 17.562C144.865 17.5926 144.857 17.6226 144.843 17.6493C144.828 17.6761 144.807 17.6988 144.782 17.7154C144.663 17.7774 144.538 17.827 144.41 17.8634L141.722 18.6405Z" fill="#3498DB"/>
<path d="M156.353 18.6405L156.033 18.7462C155.91 18.7955 155.778 18.8206 155.645 18.8202C155.549 18.8223 155.454 18.7946 155.373 18.7409C155.332 18.7112 155.3 18.671 155.28 18.6246C155.26 18.5781 155.252 18.527 155.258 18.4766V18.4079C155.3 18.0061 155.336 17.6678 155.368 17.3876C155.399 17.1074 155.425 16.8589 155.452 16.6263C155.478 16.3937 155.499 16.1717 155.514 15.9443C155.53 15.717 155.556 15.4527 155.588 15.1514C155.619 14.85 155.651 14.4905 155.693 14.094C155.734 13.6975 155.782 13.1689 155.844 12.5504C155.881 12.1697 155.913 11.7838 155.944 11.3873C155.975 10.9908 155.986 10.626 155.986 10.293C155.987 10.0858 155.971 9.87897 155.939 9.67445C155.909 9.5011 155.849 9.33456 155.761 9.1828C155.676 9.04436 155.554 8.93265 155.41 8.86032C155.234 8.7804 155.042 8.74241 154.849 8.7493C154.61 8.75901 154.373 8.79626 154.142 8.86032C153.83 8.94242 153.53 9.06691 153.252 9.23038C152.953 9.40798 152.687 9.63699 152.466 9.90706C152.234 10.2019 152.099 10.5621 152.078 10.9379C152.036 11.493 151.994 11.9635 151.958 12.3548C151.921 12.746 151.89 13.0737 151.858 13.3486C151.827 13.6235 151.806 13.8403 151.785 14.0095C151.764 14.1786 151.753 14.3266 151.748 14.4482C151.733 14.5286 151.723 14.6098 151.717 14.6914C151.717 14.8289 151.685 14.9875 151.664 15.1725C151.643 15.3575 151.628 15.5584 151.612 15.7646C151.596 15.9708 151.57 16.1717 151.554 16.3567C151.539 16.5417 151.523 16.7056 151.507 16.8378C151.492 16.9699 151.507 17.0545 151.507 17.0862C151.507 17.118 151.507 17.192 151.507 17.2343C151.51 17.273 151.51 17.3118 151.507 17.3506C151.507 17.3806 151.5 17.4101 151.486 17.4367C151.473 17.4634 151.453 17.4864 151.429 17.5039C151.311 17.5648 151.186 17.611 151.057 17.6413L148.123 18.6564L147.804 18.7727C147.679 18.8135 147.548 18.8349 147.416 18.8361C147.32 18.8382 147.225 18.8105 147.144 18.7568C147.103 18.7271 147.071 18.6869 147.051 18.6404C147.03 18.594 147.023 18.5429 147.029 18.4925L148.034 7.07345C148.04 6.89436 148.068 6.71671 148.118 6.54479C148.14 6.49528 148.174 6.45227 148.217 6.41988C148.261 6.38748 148.311 6.36679 148.364 6.35976L150.433 5.95269C151.142 5.81912 151.841 5.64258 152.529 5.42403C152.586 5.42403 152.623 5.42403 152.633 5.45047C152.64 5.47828 152.64 5.50724 152.633 5.53505C152.633 5.53505 152.633 5.57206 152.633 5.60378C152.633 5.6355 152.633 5.69894 152.597 5.80467C152.56 5.9104 152.555 6.06371 152.523 6.28046C152.492 6.49721 152.445 6.80912 152.382 7.16332C152.844 6.89195 153.324 6.65176 153.817 6.44435C154.228 6.27489 154.65 6.1336 155.08 6.02142C155.444 5.92536 155.815 5.85819 156.19 5.82053C156.536 5.78881 156.861 5.76766 157.164 5.76766C157.591 5.73043 158.02 5.79803 158.415 5.96466C158.81 6.1313 159.159 6.39203 159.433 6.72453C159.963 7.57978 160.211 8.58324 160.14 9.58986C160.14 9.76961 160.14 9.95464 160.14 10.145C160.14 10.3353 160.14 10.5256 160.098 10.7265L159.574 15.532C159.537 15.8439 159.511 16.1347 159.506 16.399C159.501 16.6633 159.506 16.9699 159.506 17.3189C159.503 17.3699 159.503 17.4211 159.506 17.4722C159.508 17.5074 159.508 17.5427 159.506 17.5779C159.507 17.6086 159.499 17.639 159.484 17.6659C159.47 17.6929 159.448 17.7154 159.422 17.7312C159.304 17.7943 159.179 17.8439 159.05 17.8792L156.353 18.6405Z" fill="#3498DB"/>
<path d="M168.395 5.77295C169.052 5.76362 169.702 5.89893 170.302 6.16944C170.851 6.41817 171.35 6.76772 171.774 7.20033C172.176 7.6057 172.497 8.08477 172.722 8.61185C172.939 9.11199 173.051 9.65189 173.052 10.1978C173.041 10.6913 172.896 11.1724 172.633 11.5882C172.324 12.0804 171.924 12.5077 171.454 12.8464C170.897 13.2404 170.282 13.5437 169.631 13.7451C168.876 13.9806 168.09 14.0966 167.3 14.0888C166.831 14.0874 166.363 14.0432 165.902 13.9566C165.925 14.2504 166.021 14.5338 166.179 14.7813C166.335 15.0036 166.535 15.1908 166.766 15.3311C167.013 15.4844 167.284 15.5952 167.567 15.6589C167.871 15.7317 168.182 15.7672 168.494 15.7646C168.837 15.7654 169.179 15.7335 169.516 15.6694C169.837 15.6097 170.154 15.5267 170.464 15.421C170.768 15.3152 171.056 15.1989 171.339 15.0721C171.622 14.9452 171.863 14.8236 172.135 14.6967L172.308 14.6544H172.444C172.444 14.8923 172.444 15.1196 172.444 15.3364C172.444 15.5531 172.444 15.8122 172.444 16.1188C172.444 16.4254 172.444 16.7638 172.444 17.1338C172.465 17.1678 172.479 17.2055 172.486 17.2448C172.49 17.2746 172.49 17.3049 172.486 17.3347C172.486 17.4246 172.407 17.5197 172.245 17.6255C172.041 17.7509 171.828 17.8588 171.606 17.948C171.344 18.059 171.045 18.17 170.71 18.2757C170.375 18.3815 170.034 18.4713 169.689 18.5559C169.356 18.6407 169.018 18.7078 168.678 18.7568C168.397 18.8042 168.114 18.8289 167.829 18.8308C167.037 18.8326 166.251 18.6911 165.509 18.4132C164.777 18.1428 164.101 17.7357 163.518 17.2131C162.906 16.6579 162.418 15.9767 162.088 15.2152C161.758 14.4537 161.594 13.6298 161.606 12.7988C161.6 11.8626 161.769 10.9335 162.104 10.0604C162.422 9.23102 162.899 8.47299 163.508 7.82943C164.112 7.19391 164.837 6.68855 165.64 6.3439C166.509 5.96303 167.447 5.7686 168.395 5.77295ZM168.259 8.74401C167.97 8.74284 167.685 8.80982 167.426 8.93962C167.158 9.0837 166.922 9.2795 166.729 9.51585C166.507 9.7795 166.322 10.0731 166.179 10.3881C166.02 10.7493 165.894 11.1245 165.802 11.5089C166.441 11.4032 167.074 11.262 167.698 11.086C168.112 10.9695 168.515 10.8174 168.903 10.6313C169.145 10.5258 169.362 10.371 169.542 10.1767C169.655 10.0555 169.721 9.89836 169.731 9.7326C169.729 9.5921 169.676 9.45703 169.584 9.35197C169.477 9.22926 169.351 9.12404 169.212 9.04006C169.062 8.949 168.9 8.8796 168.73 8.83388C168.578 8.78304 168.419 8.75282 168.259 8.74401Z" fill="#3498DB"/>
<path d="M183.622 18.6405L183.303 18.7462C183.179 18.7955 183.048 18.8206 182.915 18.8202C182.818 18.8223 182.723 18.7947 182.643 18.7409C182.602 18.7112 182.57 18.671 182.549 18.6246C182.529 18.5781 182.522 18.527 182.527 18.4766V18.4079C182.569 18.0061 182.606 17.6678 182.637 17.3876C182.669 17.1074 182.695 16.8589 182.721 16.6263C182.747 16.3937 182.768 16.1717 182.789 15.9443C182.81 15.717 182.831 15.4527 182.857 15.1514C182.884 14.85 182.925 14.4905 182.962 14.094C182.999 13.6975 183.056 13.1689 183.114 12.5504C183.151 12.1697 183.182 11.7838 183.214 11.3873C183.245 10.9908 183.255 10.626 183.255 10.293C183.257 10.0858 183.241 9.87897 183.208 9.67445C183.179 9.5011 183.118 9.33456 183.03 9.1828C182.947 9.04323 182.825 8.93118 182.679 8.86032C182.503 8.7804 182.312 8.74241 182.119 8.7493C181.881 8.75941 181.646 8.79665 181.417 8.86032C181.103 8.94139 180.801 9.06592 180.521 9.23038C180.222 9.40798 179.956 9.63699 179.735 9.90706C179.504 10.2019 179.368 10.5621 179.348 10.9379C179.306 11.493 179.264 11.9635 179.227 12.3548C179.191 12.746 179.144 13.0579 179.144 13.3328C179.144 13.6077 179.091 13.8244 179.07 13.9936C179.049 14.1628 179.039 14.3108 179.034 14.4324C179.034 14.4588 179.034 14.5434 179.002 14.6756C178.971 14.8077 178.971 14.9716 178.95 15.1566C178.929 15.3417 178.913 15.5426 178.897 15.7487C178.882 15.9549 178.861 16.1558 178.84 16.3408C178.819 16.5259 178.808 16.6898 178.798 16.8219C178.787 16.9541 178.798 17.0387 178.798 17.0704C178.795 17.1197 178.795 17.1691 178.798 17.2184C178.798 17.2607 178.798 17.2977 178.798 17.3347C178.796 17.365 178.788 17.3945 178.773 17.4211C178.759 17.4476 178.739 17.4705 178.714 17.488C178.596 17.5499 178.471 17.5961 178.342 17.6255L175.409 18.6405L175.089 18.7568C174.964 18.7977 174.833 18.819 174.702 18.8202C174.605 18.8223 174.51 18.7947 174.429 18.7409C174.389 18.7112 174.356 18.671 174.336 18.6246C174.316 18.5781 174.308 18.527 174.314 18.4766L175.32 7.05759C175.328 6.87879 175.356 6.7015 175.404 6.52893C175.426 6.47872 175.461 6.43525 175.505 6.40281C175.549 6.37036 175.601 6.35006 175.655 6.3439L177.724 5.93683C178.424 5.80243 179.114 5.62589 179.793 5.40817C179.851 5.40817 179.887 5.40817 179.898 5.43461C179.904 5.46242 179.904 5.49137 179.898 5.51919C179.9 5.54205 179.9 5.56506 179.898 5.58792C179.898 5.61435 179.898 5.68308 179.866 5.78881C179.835 5.89454 179.819 6.04785 179.788 6.2646C179.756 6.48135 179.709 6.79326 179.646 7.14746C180.109 6.87712 180.589 6.63697 181.082 6.42848C181.493 6.25981 181.915 6.11853 182.344 6.00556C182.708 5.9095 183.08 5.84233 183.455 5.80467C183.8 5.77295 184.125 5.7518 184.429 5.7518C184.855 5.71457 185.284 5.78216 185.679 5.9488C186.074 6.11544 186.424 6.37617 186.697 6.70867C187.23 7.56331 187.479 8.5668 187.409 9.57401C187.409 9.75375 187.409 9.93878 187.409 10.1291C187.409 10.3141 187.409 10.5097 187.367 10.7106L186.844 15.5161C186.807 15.828 186.786 16.1188 186.775 16.3831C186.765 16.6475 186.775 16.9541 186.775 17.303C186.773 17.3541 186.773 17.4052 186.775 17.4563C186.778 17.4915 186.778 17.5268 186.775 17.562C186.776 17.5928 186.769 17.6232 186.754 17.6501C186.739 17.677 186.718 17.6995 186.692 17.7154C186.574 17.7784 186.449 17.8281 186.32 17.8634L183.622 18.6405Z" fill="#3498DB"/>
<path d="M188.735 18.6669C188.735 18.3127 188.761 18.0378 188.771 17.8317C188.782 17.6255 188.771 17.4722 188.771 17.3559C188.771 17.2396 188.771 17.1708 188.771 17.1233V16.9964C188.771 16.9541 188.771 16.9065 188.771 16.8431C188.771 16.7796 188.771 16.6845 188.771 16.547C188.771 16.4096 188.771 16.2193 188.803 15.9761C188.834 15.7329 188.839 15.4157 188.86 15.0139C188.86 14.8351 188.885 14.6571 188.934 14.4853C188.954 14.4354 188.988 14.3924 189.031 14.3615C189.075 14.3305 189.126 14.3129 189.18 14.3108H191.217H193.218C193.279 14.307 193.338 14.3258 193.386 14.3637C193.412 14.3916 193.432 14.4251 193.444 14.4616C193.455 14.4982 193.459 14.537 193.454 14.5751L193.145 18.0854C193.128 18.2632 193.1 18.4397 193.061 18.6141C193.061 18.7092 192.951 18.7621 192.81 18.778H190.882H188.813H188.719C188.709 18.7698 188.701 18.7592 188.697 18.7471C188.692 18.7351 188.691 18.722 188.693 18.7092L188.735 18.6669Z" fill="#3498DB"/>
<path d="M195.696 13.5019C195.794 12.4869 195.89 11.4789 195.984 10.478C196.078 9.47885 196.167 8.45326 196.241 7.40651C196.243 7.22819 196.265 7.05072 196.309 6.87785C196.331 6.82732 196.366 6.78358 196.41 6.75107C196.454 6.71856 196.506 6.69847 196.56 6.69282L198.525 6.34391C199.199 6.21078 199.863 6.0342 200.515 5.81525H200.615C200.698 5.81525 200.74 5.84697 200.74 5.90512L199.745 16.7849C199.733 16.9629 199.706 17.1397 199.666 17.3136C199.647 17.3647 199.613 17.4092 199.57 17.4419C199.526 17.4747 199.474 17.4943 199.42 17.4986C198.797 17.6942 198.158 17.911 197.519 18.1489C196.88 18.3868 196.199 18.6299 195.481 18.8731C195.448 18.88 195.415 18.88 195.382 18.8731C195.303 18.8731 195.261 18.8361 195.261 18.7621C195.261 18.6881 195.261 18.6564 195.261 18.4608C195.261 18.2652 195.298 18.0167 195.324 17.7101C195.35 17.4035 195.376 17.0651 195.408 16.6845C195.439 16.3038 195.466 15.9232 195.497 15.5479C195.528 15.1725 195.565 14.8025 195.591 14.4535C195.617 14.1046 195.675 13.7451 195.696 13.5019ZM196.529 4.58876C196.529 4.27156 196.566 4.02309 196.576 3.85392C196.586 3.68475 196.576 3.55259 196.602 3.468C196.628 3.38342 196.602 3.33055 196.602 3.30412C196.599 3.28843 196.599 3.27223 196.602 3.25654C196.602 3.25654 196.602 3.22482 196.602 3.18781C196.602 3.15081 196.602 3.08737 196.602 2.97635C196.602 2.86533 196.602 2.71202 196.634 2.50056C196.665 2.28909 196.67 2.0089 196.702 1.64413C196.703 1.4654 196.727 1.2876 196.775 1.11547C196.796 1.06601 196.83 1.02324 196.874 0.991627C196.917 0.96001 196.968 0.940704 197.021 0.935726L199.048 0.555092C199.724 0.421309 200.391 0.24474 201.044 0.0264329L201.144 0C201.152 0.0202099 201.164 0.0385701 201.179 0.0540031C201.194 0.0694361 201.213 0.081631 201.233 0.089872H201.264L201.007 3.17195C201 3.35048 200.973 3.52768 200.929 3.70061C200.91 3.75069 200.877 3.79425 200.835 3.82611C200.792 3.85797 200.741 3.87679 200.688 3.88036C200.059 4.00195 199.426 4.12883 198.786 4.27156C198.147 4.4143 197.466 4.55704 196.749 4.69449C196.716 4.70133 196.682 4.70133 196.649 4.69449C196.566 4.70506 196.529 4.66277 196.529 4.58876Z" fill="#3498DB"/>
<path d="M211.368 18.6405L211.049 18.7462C210.926 18.7955 210.794 18.8206 210.661 18.8202C210.565 18.8223 210.47 18.7946 210.389 18.7409C210.348 18.7112 210.316 18.671 210.296 18.6246C210.276 18.5781 210.268 18.527 210.274 18.4766V18.4079C210.316 18.0061 210.352 17.6678 210.384 17.3876C210.415 17.1074 210.441 16.8589 210.468 16.6263C210.494 16.3937 210.515 16.1717 210.536 15.9443C210.557 15.717 210.578 15.4527 210.604 15.1514C210.63 14.85 210.672 14.4905 210.708 14.094C210.745 13.6975 210.803 13.1689 210.86 12.5504C210.897 12.1697 210.928 11.7838 210.96 11.3873C210.991 10.9908 211.002 10.626 211.002 10.293C211.003 10.0858 210.987 9.87897 210.955 9.67445C210.927 9.50046 210.867 9.33348 210.777 9.1828C210.693 9.04323 210.571 8.93118 210.426 8.86032C210.25 8.7804 210.058 8.74241 209.865 8.7493C209.628 8.75941 209.392 8.79665 209.163 8.86032C208.849 8.94234 208.548 9.06682 208.268 9.23038C207.969 9.40798 207.703 9.63699 207.482 9.90706C207.249 10.2012 207.115 10.5621 207.099 10.9379C207.052 11.493 207.01 11.9635 206.974 12.3548C206.937 12.746 206.906 13.0737 206.874 13.3486C206.843 13.6235 206.822 13.8403 206.806 14.0095C206.79 14.1786 206.775 14.3266 206.764 14.4482C206.764 14.4747 206.764 14.5593 206.733 14.6914C206.701 14.8236 206.701 14.9875 206.68 15.1725C206.659 15.3575 206.644 15.5584 206.628 15.7646C206.612 15.9708 206.591 16.1717 206.57 16.3567C206.549 16.5417 206.539 16.7056 206.528 16.8378C206.518 16.9699 206.528 17.0545 206.528 17.0862C206.526 17.1355 206.526 17.185 206.528 17.2343C206.528 17.2766 206.528 17.3136 206.528 17.3506C206.527 17.3809 206.518 17.4104 206.504 17.4369C206.489 17.4635 206.469 17.4864 206.445 17.5039C206.327 17.5657 206.202 17.6119 206.073 17.6413L203.139 18.6564L202.82 18.7727C202.695 18.8135 202.564 18.8349 202.432 18.8361C202.336 18.8382 202.241 18.8105 202.16 18.7568C202.119 18.7271 202.087 18.6869 202.067 18.6404C202.046 18.594 202.039 18.5429 202.045 18.4925L203.05 7.07345C203.059 6.89465 203.087 6.71736 203.134 6.54479C203.157 6.49458 203.192 6.45111 203.236 6.41867C203.28 6.38622 203.331 6.36592 203.386 6.35976L205.481 5.95269C206.18 5.81829 206.871 5.64176 207.55 5.42403C207.608 5.42403 207.644 5.42403 207.655 5.45047C207.661 5.47828 207.661 5.50724 207.655 5.53505C207.657 5.55791 207.657 5.58092 207.655 5.60378C207.655 5.63021 207.655 5.69894 207.623 5.80467C207.592 5.9104 207.576 6.06371 207.545 6.28046C207.513 6.49721 207.466 6.80912 207.403 7.16332C207.866 6.89298 208.345 6.65283 208.838 6.44435C209.25 6.27567 209.671 6.13439 210.101 6.02142C210.465 5.92536 210.837 5.85819 211.211 5.82053C211.557 5.78881 211.882 5.76766 212.186 5.76766C212.612 5.73043 213.041 5.79803 213.436 5.96466C213.831 6.1313 214.18 6.39203 214.454 6.72453C214.989 7.57814 215.238 8.58243 215.166 9.58986C215.166 9.76961 215.166 9.95464 215.166 10.145C215.166 10.33 215.166 10.5256 215.124 10.7265L214.6 15.532C214.564 15.8439 214.543 16.1347 214.532 16.399C214.522 16.6633 214.532 16.9699 214.532 17.3189C214.529 17.3699 214.529 17.4211 214.532 17.4722C214.535 17.5074 214.535 17.5427 214.532 17.5779C214.533 17.6086 214.526 17.639 214.511 17.6659C214.496 17.6929 214.475 17.7154 214.448 17.7312C214.332 17.7936 214.209 17.8432 214.082 17.8792L211.368 18.6405Z" fill="#3498DB"/>
<path d="M218.052 18.4079C218.052 18.3286 218.079 18.1489 218.105 17.8792C218.131 17.6096 218.162 17.2607 218.199 16.8219L218.325 15.3893C218.372 14.8606 218.424 14.2685 218.487 13.6447C218.55 13.0209 218.608 12.3759 218.67 11.6939C218.733 11.012 218.796 10.3353 218.864 9.64274H217.382C217.095 9.64874 216.807 9.63105 216.523 9.58987C216.345 9.55815 216.256 9.48942 216.256 9.38369C216.279 9.2986 216.316 9.21812 216.366 9.1458C216.439 9.01363 216.533 8.85503 216.649 8.67529C216.764 8.49555 216.884 8.29466 217.02 8.08848C217.157 7.8823 217.277 7.6867 217.403 7.50167L217.717 7.02587C217.806 6.89371 217.859 6.80912 217.885 6.78269H219.231L219.477 5.02754C219.537 4.2114 219.713 3.40829 220.001 2.64329C220.246 2.06571 220.602 1.54285 221.049 1.10489C221.436 0.718695 221.908 0.429076 222.426 0.25904C222.955 0.0843361 223.509 -0.00313356 224.066 -2.76491e-06C224.685 0.00432386 225.301 0.0770068 225.904 0.216747C226.569 0.367772 227.222 0.567428 227.858 0.814132C227.966 0.859104 228.071 0.910292 228.172 0.967443C228.203 0.981307 228.229 1.00353 228.247 1.03157C228.266 1.05962 228.276 1.09235 228.277 1.12604C228.27 1.20969 228.245 1.29079 228.204 1.36394C227.963 1.82387 227.79 2.19922 227.68 2.47941L227.381 3.17195C227.342 3.28796 227.287 3.39817 227.219 3.49972C227.195 3.52881 227.164 3.55166 227.13 3.56637C227.095 3.58109 227.057 3.58724 227.02 3.5843C226.971 3.58393 226.923 3.57312 226.879 3.55259L226.711 3.47329C226.449 3.37813 226.187 3.28826 225.93 3.20896C225.688 3.13374 225.435 3.09456 225.181 3.09265C224.867 3.08733 224.561 3.19827 224.322 3.40456C224.021 3.73397 223.822 4.14591 223.751 4.58876C223.673 4.9271 223.605 5.28659 223.552 5.64607C223.5 6.00556 223.458 6.41792 223.421 6.79855H226.287C226.349 6.79928 226.409 6.81962 226.46 6.8567C226.489 6.88155 226.512 6.91333 226.527 6.94928C226.541 6.98522 226.547 7.02422 226.543 7.06288C226.514 7.20293 226.47 7.33941 226.412 7.46995C226.325 7.69551 226.199 7.99684 226.035 8.37395L225.637 9.27796C225.599 9.36875 225.544 9.4513 225.475 9.52114C225.376 9.58824 225.259 9.62328 225.14 9.62159H223.222C223.144 10.3987 223.065 11.1653 222.992 11.9265C222.919 12.6878 222.845 13.3962 222.782 14.0412C222.72 14.6861 222.678 15.3311 222.62 15.8598C222.562 16.3884 222.526 16.7796 222.499 17.0598C222.492 17.1018 222.492 17.1447 222.499 17.1867C222.497 17.2113 222.497 17.2361 222.499 17.2607C222.499 17.2871 222.499 17.303 222.499 17.3189C222.5 17.3499 222.494 17.3807 222.481 17.4091C222.468 17.4374 222.45 17.4625 222.426 17.4827C222.31 17.5476 222.184 17.5939 222.054 17.6202L219.142 18.6775L218.822 18.7938C218.697 18.8351 218.566 18.8565 218.435 18.8573C218.331 18.866 218.228 18.8338 218.147 18.7674C218.105 18.7185 218.075 18.6608 218.059 18.5985C218.042 18.5363 218.04 18.4711 218.052 18.4079Z" fill="#3498DB"/>
<path d="M232.97 18.8203C232.033 18.836 231.102 18.656 230.236 18.2916C229.489 17.9764 228.815 17.5083 228.256 16.9171C227.73 16.3504 227.323 15.6812 227.062 14.9505C226.538 13.4702 226.538 11.8525 227.062 10.3723C227.558 8.958 228.534 7.76673 229.817 7.01001C230.482 6.6243 231.209 6.36114 231.965 6.23288C232.085 6.23288 232.143 6.20116 232.143 6.15358C232.142 6.07708 232.134 6.00086 232.117 5.92626C232.097 5.86646 232.087 5.80412 232.085 5.74123C232.082 5.71211 232.084 5.68258 232.092 5.65441C232.1 5.62624 232.114 5.60002 232.132 5.57735C232.145 5.5626 232.16 5.5507 232.177 5.54248C232.194 5.53427 232.213 5.52993 232.232 5.52977C233.447 5.50319 234.66 5.66726 235.825 6.01613C236.712 6.28276 237.535 6.73286 238.24 7.33778C238.843 7.87654 239.306 8.55508 239.591 9.31496C239.874 10.0993 240.016 10.9281 240.01 11.7627C240.029 12.7809 239.84 13.7921 239.455 14.7337C239.118 15.5669 238.611 16.3191 237.966 16.9412C237.322 17.5633 236.555 18.0415 235.715 18.3445C234.836 18.668 233.906 18.8291 232.97 18.8203ZM230.928 12.5451C230.927 12.9485 230.969 13.3507 231.053 13.7451C231.134 14.1187 231.275 14.4761 231.472 14.8024C231.665 15.1187 231.929 15.3849 232.242 15.5796C232.602 15.7868 233.012 15.8892 233.426 15.8756C233.737 15.867 234.041 15.7875 234.317 15.643C234.568 15.5104 234.792 15.331 234.977 15.1144C235.162 14.8874 235.317 14.6368 235.438 14.3689C235.557 14.0938 235.653 13.8091 235.726 13.5178C235.791 13.2319 235.84 12.9424 235.872 12.6508C235.901 12.3945 235.915 12.1368 235.914 11.879C235.916 11.4937 235.86 11.1104 235.747 10.7423C235.635 10.3843 235.457 10.0507 235.223 9.75904C234.998 9.4735 234.716 9.23927 234.395 9.07178C234.045 8.89107 233.657 8.80028 233.264 8.80745C232.854 8.7951 232.455 8.93637 232.143 9.20395C231.835 9.47402 231.589 9.80753 231.42 10.182C231.236 10.5697 231.104 10.9804 231.027 11.4032C230.957 11.7797 230.924 12.1621 230.928 12.5451Z" fill="#3498DB"/>
</g>
<defs>
<clipPath id="clip0_3_444">
<rect width="240" height="19" fill="white"/>
</clipPath>
</defs>
</svg>
