<svg width="40" height="40" viewBox="0 0 40 40" fill="none" xmlns="http://www.w3.org/2000/svg">
<path d="M0.689686 33.1035H39.3103C39.6912 33.1035 40 32.7946 40 32.4138V7.58623C40 7.20537 39.6912 6.89655 39.3103 6.89655H0.689686C0.308828 6.89662 0 7.20537 0 7.58623V32.4138C0 32.7947 0.308828 33.1035 0.689686 33.1035Z" fill="#C8414B"/>
<path d="M39.9999 12.4141H0V27.5868H39.9999V12.4141Z" fill="#FFD250"/>
<path d="M16.8965 20.0001L17.4812 17.3687C17.5351 17.1264 17.3507 16.8965 17.1024 16.8965H16.6905C16.4423 16.8965 16.258 17.1264 16.3117 17.3687L16.8965 20.0001Z" fill="#C8414B"/>
<path d="M17.5864 18.6204H16.2071V24.4821H17.5864V18.6204Z" fill="#F5F5F5"/>
<path d="M17.9306 17.9313H15.8617V18.621H17.9306V17.9313Z" fill="#FAB446"/>
<path d="M17.9314 20.0001H14.4829V20.6898H17.9314V20.0001Z" fill="#C8414B"/>
<path d="M17.9311 22.7586L15.8621 22.069V21.3793L17.9311 22.069V22.7586Z" fill="#C8414B"/>
<path d="M6.55174 20.0001L7.13651 17.3687C7.19042 17.1264 7.00596 16.8965 6.75768 16.8965H6.34581C6.0976 16.8965 5.91323 17.1264 5.96698 17.3687L6.55174 20.0001Z" fill="#C8414B"/>
<path d="M8.96566 17.9311C8.5848 17.9311 8.27597 18.2399 8.27597 18.6207V23.1035C8.27597 23.9414 9.058 25.5173 11.7242 25.5173C14.3905 25.5173 15.1725 23.9414 15.1725 23.1035V18.6207C15.1725 18.2399 14.8637 17.9311 14.4828 17.9311H8.96566Z" fill="#F5F5F5"/>
<path d="M11.7242 21.3793H8.27597V18.6207C8.27597 18.2399 8.5848 17.9311 8.96566 17.9311H11.7242V21.3793Z" fill="#C8414B"/>
<path d="M11.7243 21.3793H15.1726V23.1035C15.1726 24.0557 14.4007 24.8276 13.4485 24.8276C12.4962 24.8276 11.7243 24.0557 11.7243 23.1035V21.3793Z" fill="#C8414B"/>
<path d="M8.27597 21.3793H11.7242V23.1035C11.7242 24.0557 10.9524 24.8276 10.0001 24.8276C9.04784 24.8276 8.27597 24.0557 8.27597 23.1035V21.3793Z" fill="#FAB446"/>
<path d="M11.0343 24.475V21.3793H10.3446V24.7928C10.6012 24.7408 10.833 24.6272 11.0343 24.475Z" fill="#C8414B"/>
<path d="M9.65508 24.7928V21.3793H8.96539V24.475C9.1668 24.6272 9.3986 24.7408 9.65508 24.7928Z" fill="#C8414B"/>
<path d="M11.0346 20.0001H8.96561V20.6898H11.0346V20.0001Z" fill="#FFB441"/>
<path d="M11.0346 18.6204H8.96561V19.31H11.0346V18.6204Z" fill="#FAB446"/>
<path d="M10.6895 19.0305H9.31024V20.2799H10.6895V19.0305Z" fill="#FAB446"/>
<path d="M7.24096 18.6204H5.86166V24.4821H7.24096V18.6204Z" fill="#F5F5F5"/>
<path d="M7.58601 24.1384H5.51703V24.8281H7.58601V24.1384Z" fill="#FAB446"/>
<path d="M7.58601 17.9313H5.51703V18.621H7.58601V17.9313Z" fill="#FAB446"/>
<path d="M7.93129 24.8273H5.1727V25.517H7.93129V24.8273Z" fill="#5064AA"/>
<path d="M18.276 24.1384H16.2071V24.8281H18.276V24.1384Z" fill="#FAB446"/>
<path d="M18.2756 24.8273H15.517V25.517H18.2756V24.8273Z" fill="#5064AA"/>
<path d="M13.7933 17.2415H9.65533V17.9311H13.7933V17.2415Z" fill="#FAB446"/>
<path d="M12.0695 15.1727H11.3798V17.2417H12.0695V15.1727Z" fill="#FFB441"/>
<path d="M11.0345 16.2069C10.464 16.2069 10 15.7429 10 15.1725C10 14.602 10.4641 14.138 11.0345 14.138C11.6049 14.138 12.0689 14.6021 12.0689 15.1725C12.069 15.7429 11.6049 16.2069 11.0345 16.2069ZM11.0345 14.8276C10.8442 14.8276 10.6896 14.9822 10.6896 15.1725C10.6896 15.3627 10.8441 15.5173 11.0345 15.5173C11.2248 15.5173 11.3793 15.3628 11.3793 15.1725C11.3793 14.9822 11.2248 14.8276 11.0345 14.8276Z" fill="#F5F5F5"/>
<path d="M12.4138 16.2069C11.8433 16.2069 11.3794 15.7429 11.3794 15.1725C11.3794 14.602 11.8434 14.138 12.4138 14.138C12.9843 14.138 13.4483 14.6021 13.4483 15.1725C13.4483 15.7429 12.9842 16.2069 12.4138 16.2069ZM12.4138 14.8276C12.2236 14.8276 12.069 14.9822 12.069 15.1725C12.069 15.3627 12.2235 15.5173 12.4138 15.5173C12.604 15.5173 12.7587 15.3628 12.7587 15.1725C12.7586 14.9822 12.604 14.8276 12.4138 14.8276Z" fill="#F5F5F5"/>
<path d="M13.7931 16.8966C13.2226 16.8966 12.7586 16.4326 12.7586 15.8622C12.7586 15.2917 13.2227 14.8277 13.7931 14.8277C14.3635 14.8277 14.8275 15.2918 14.8275 15.8622C14.8275 16.4326 14.3634 16.8966 13.7931 16.8966ZM13.7931 15.5173C13.6028 15.5173 13.4482 15.6719 13.4482 15.8622C13.4482 16.0524 13.6027 16.207 13.7931 16.207C13.9833 16.207 14.1379 16.0525 14.1379 15.8622C14.1379 15.6719 13.9833 15.5173 13.7931 15.5173Z" fill="#F5F5F5"/>
<path d="M9.65518 16.8966C9.08471 16.8966 8.62073 16.4326 8.62073 15.8622C8.62073 15.2917 9.08479 14.8277 9.65518 14.8277C10.2256 14.8277 10.6896 15.2918 10.6896 15.8622C10.6897 16.4326 10.2256 16.8966 9.65518 16.8966ZM9.65518 15.5173C9.46494 15.5173 9.31034 15.6719 9.31034 15.8622C9.31034 16.0524 9.46487 16.207 9.65518 16.207C9.84549 16.207 10 16.0524 10 15.8621C10 15.6719 9.84549 15.5173 9.65518 15.5173Z" fill="#F5F5F5"/>
<path d="M13.7931 22.7586V23.1035C13.7931 23.2936 13.6384 23.4483 13.4483 23.4483C13.2581 23.4483 13.1034 23.2936 13.1034 23.1035V22.7586H13.7931ZM14.4827 22.069H12.4137V23.1035C12.4137 23.674 12.8778 24.1379 13.4482 24.1379C14.0186 24.1379 14.4826 23.6739 14.4826 23.1035V22.069H14.4827Z" fill="#FAB446"/>
<path d="M13.4482 20.6898C13.0673 20.6898 12.7585 20.3809 12.7585 20.0001V19.3104C12.7585 18.9295 13.0673 18.6207 13.4482 18.6207C13.829 18.6207 14.1379 18.9295 14.1379 19.3104V20.0001C14.1379 20.3809 13.829 20.6898 13.4482 20.6898Z" fill="#FFA0D2"/>
<path d="M11.7241 22.4134C12.2954 22.4134 12.7585 21.9502 12.7585 21.3789C12.7585 20.8076 12.2954 20.3445 11.7241 20.3445C11.1527 20.3445 10.6896 20.8076 10.6896 21.3789C10.6896 21.9502 11.1527 22.4134 11.7241 22.4134Z" fill="#5064AA"/>
<path d="M12.0695 13.793H11.3798V15.8619H12.0695V13.793Z" fill="#FAB446"/>
<path d="M9.65508 17.2414L8.96539 16.5517L9.36938 16.1478C9.99383 15.5233 10.8409 15.1725 11.7241 15.1725C12.6073 15.1725 13.4542 15.5233 14.0788 16.1478L14.4827 16.5517L13.793 17.2414H9.65508Z" fill="#C8414B"/>
<path d="M11.7242 16.8964C11.9146 16.8964 12.069 16.7421 12.069 16.5516C12.069 16.3611 11.9146 16.2068 11.7242 16.2068C11.5337 16.2068 11.3793 16.3611 11.3793 16.5516C11.3793 16.7421 11.5337 16.8964 11.7242 16.8964Z" fill="#FFD250"/>
<path d="M10.3444 16.8964C10.5348 16.8964 10.6892 16.7421 10.6892 16.5516C10.6892 16.3611 10.5348 16.2068 10.3444 16.2068C10.1539 16.2068 9.99954 16.3611 9.99954 16.5516C9.99954 16.7421 10.1539 16.8964 10.3444 16.8964Z" fill="#FFD250"/>
<path d="M13.1029 16.8964C13.2934 16.8964 13.4477 16.7421 13.4477 16.5516C13.4477 16.3611 13.2934 16.2068 13.1029 16.2068C12.9124 16.2068 12.7581 16.3611 12.7581 16.5516C12.7581 16.7421 12.9124 16.8964 13.1029 16.8964Z" fill="#FFD250"/>
<path d="M8.96546 20.0001H5.51703V20.6898H8.96546V20.0001Z" fill="#C8414B"/>
<path d="M5.51715 22.7587L7.58605 22.069V21.3794L5.51715 22.069V22.7587Z" fill="#C8414B"/>
</svg>
