<svg width="40" height="40" viewBox="0 0 40 40" fill="none" xmlns="http://www.w3.org/2000/svg">
<path d="M39.3102 33.1034H0.689685C0.308827 33.1034 0 32.7946 0 32.4137V7.58623C0 7.20537 0.308827 6.89655 0.689685 6.89655H39.3102C39.6911 6.89655 39.9999 7.20537 39.9999 7.58623V32.4137C39.9998 32.7946 39.691 33.1034 39.3102 33.1034Z" fill="#41479B"/>
<path d="M39.9998 7.58623C39.9998 7.20537 39.691 6.89655 39.3102 6.89655H36.2246L23.4481 15.2674V6.89655H16.5516V15.2674L3.77514 6.89655H0.689685C0.308827 6.89655 0 7.20537 0 7.58623V9.36989L10.9616 16.5517H0V23.4482H10.9616L0 30.63V32.4137C0 32.7946 0.308827 33.1034 0.689685 33.1034H3.77522L16.5517 24.7326V33.1034H23.4483V24.7326L36.2248 33.1034H39.3103C39.6912 33.1034 40 32.7946 40 32.4137V30.63L29.0384 23.4483H39.9998V16.5517H29.0382L39.9998 9.36989V7.58623Z" fill="#F5F5F5"/>
<path d="M39.9998 17.931H22.0689V6.89655H17.9309V17.931H0V22.0689H17.9309V33.1034H22.0689V22.0689H39.9998V17.931Z" fill="#FF4B55"/>
<path d="M13.9803 23.4483L0.0195312 32.5105C0.0683592 32.8435 0.342968 33.1035 0.689607 33.1035H1.63953L16.5137 23.4484H13.9803V23.4483Z" fill="#FF4B55"/>
<path d="M27.0615 23.4483H24.5281L39.3806 33.0892C39.7268 33.0523 40 32.7696 40 32.4137V31.8467L27.0615 23.4483Z" fill="#FF4B55"/>
<path d="M0 8.34752L12.6389 16.5517H15.1724L0.401795 6.96378C0.165859 7.07338 0 7.30893 0 7.58619V8.34752Z" fill="#FF4B55"/>
<path d="M25.9817 16.5518L39.9759 7.46768C39.9178 7.14565 39.6491 6.89667 39.3102 6.89667H38.3222L23.4483 16.5518H25.9817Z" fill="#FF4B55"/>
</svg>
